<?xml version="1.0" encoding="utf-8"?>
<!-- Generator: Adobe Illustrator 16.0.4, SVG Export Plug-In . SVG Version: 6.00 Build 0)  -->
<!DOCTYPE svg PUBLIC "-//W3C//DTD SVG 1.1//EN" "http://www.w3.org/Graphics/SVG/1.1/DTD/svg11.dtd">
<svg version="1.1"
	 id="Layer_1" xmlns:rdf="http://www.w3.org/1999/02/22-rdf-syntax-ns#" xmlns:cc="http://creativecommons.org/ns#" xmlns:dc="http://purl.org/dc/elements/1.1/"
	 xmlns="http://www.w3.org/2000/svg" xmlns:xlink="http://www.w3.org/1999/xlink" x="0px" y="0px" width="313px" height="37px"
	 viewBox="32.5 4 313 37" enable-background="new 32.5 4 313 37" xml:space="preserve">
<g>
	<path fill="#FFFFFF" d="M255.691,32.572c-4.842,0-8.035-4.135-8.035-9.994c0-5.861,3.251-10.056,8.089-10.056
		c4.84,0,8.065,4.138,8.065,9.997C263.81,28.377,260.528,32.572,255.691,32.572 M255.664,14.493c-3.366,0-5.844,3.139-5.844,8.025
		c0,4.891,2.557,8.085,5.95,8.085c3.366,0,5.869-3.139,5.869-8.026C261.639,17.688,259.052,14.493,255.664,14.493"/>
	<path fill="#FFFFFF" d="M280.356,32.27l-8.511-13.307c-0.42-0.665-1.143-1.943-1.393-2.443v1.333v14.416h-2.084V12.826h2.116
		l8.421,13.556c0.417,0.665,1.142,1.941,1.392,2.442V27.49V12.826h2.084V32.27H280.356z"/>
	<polygon fill="#FFFFFF" points="287.779,32.27 287.779,12.826 289.951,12.826 289.951,30.294 299.576,30.294 299.576,32.27 	"/>
	<rect x="304.194" y="12.826" fill="#FFFFFF" width="2.162" height="19.443"/>
	<path fill="#FFFFFF" d="M323.877,32.27l-8.505-13.307c-0.423-0.665-1.143-1.943-1.392-2.443v1.333v14.416h-2.086V12.826h2.116
		l8.421,13.556c0.418,0.665,1.144,1.941,1.394,2.442V27.49V12.826h2.085V32.27H323.877z"/>
	<polygon fill="#FFFFFF" points="331.305,32.27 331.305,12.826 343.073,12.826 343.073,14.797 333.478,14.797 333.478,20.909 
		339.039,20.909 339.039,22.884 333.478,22.884 333.478,30.294 343.492,30.294 343.492,32.27 	"/>
	<path fill="#FFFFFF" d="M91.423,16.391c-2.72,0-4.526,2.192-4.526,6.13s1.889,6.184,4.612,6.184c2.72,0,4.522-2.191,4.522-6.13
		C96.032,18.639,94.143,16.391,91.423,16.391 M91.451,32.558c-5.08,0-8.551-3.714-8.551-9.983c0-6.263,3.527-10.038,8.611-10.038
		c5.049,0,8.522,3.715,8.522,9.983C100.033,28.787,96.503,32.558,91.451,32.558"/>
	<path fill="#FFFFFF" d="M112.104,16.613h-4.47v4.993h4.527c1.803,0,2.776-0.833,2.776-2.526
		C114.937,17.388,113.824,16.613,112.104,16.613 M111.911,25.379h-4.278v6.874h-3.886V12.842h8.495c3.664,0,6.692,2.025,6.692,6.157
		C118.933,23.494,115.936,25.379,111.911,25.379"/>
	<polygon fill="#FFFFFF" points="122.956,32.252 122.956,12.842 136.447,12.842 136.447,16.643 126.84,16.643 126.84,19.997 
		132.42,19.997 132.42,23.767 126.84,23.767 126.84,28.451 136.864,28.451 136.864,32.252 	"/>
	<path fill="#FFFFFF" d="M153.6,32.252l-7.138-10.59c-0.473-0.719-1.109-1.692-1.359-2.19c0,0.721,0.053,3.161,0.053,4.245v8.536
		h-3.828v-19.41h3.716l6.887,10.262c0.473,0.719,1.11,1.693,1.36,2.19c0-0.726-0.054-3.161-0.054-4.243V12.84h3.828v19.41H153.6
		V32.252z"/>
	<path fill="#FFFFFF" d="M168.37,32.558c-2.636,0-4.997-1.14-6.521-2.688l1.441-1.609c1.472,1.414,3.166,2.33,5.166,2.33
		c2.583,0,4.193-1.274,4.193-3.327c0-1.805-1.083-2.828-4.637-4.104c-4.191-1.498-5.612-2.857-5.612-5.657
		c0-3.11,2.444-4.965,6.082-4.965c2.613,0,4.279,0.774,5.917,2.082l-1.388,1.691c-1.416-1.167-2.723-1.805-4.667-1.805
		c-2.663,0-3.776,1.33-3.776,2.856c0,1.611,0.725,2.523,4.61,3.91c4.305,1.553,5.638,2.996,5.638,5.878
		C174.814,30.203,172.425,32.558,168.37,32.558"/>
	<polygon fill="#FFFFFF" points="191.465,32.252 191.465,23.104 181.803,23.104 181.803,32.252 179.638,32.252 179.638,12.842 
		181.803,12.842 181.803,21.133 191.465,21.133 191.465,12.842 193.631,12.842 193.631,32.252 	"/>
	<rect x="199.201" y="12.843" fill="#FFFFFF" width="2.165" height="19.41"/>
	<polygon fill="#FFFFFF" points="209.11,14.81 209.11,21.246 214.438,21.246 214.438,23.215 209.11,23.215 209.11,32.252 
		206.943,32.252 206.943,12.842 218.356,12.842 218.356,14.81 	"/>
	<polygon fill="#FFFFFF" points="230.126,14.81 230.126,32.252 227.961,32.252 227.961,14.81 222.244,14.81 222.244,12.842 
		235.847,12.842 235.847,14.81 	"/>
	<path fill="#BC1C29" d="M44.249,20.639L37.751,23c0.085,1.04,0.263,2.067,0.514,3.075l6.169-2.248
		C44.236,22.789,44.166,21.715,44.249,20.639"/>
	<path fill="#BC1C29" d="M72.951,13.466c-0.452-0.932-0.975-1.835-1.584-2.688l-6.495,2.362c0.756,0.774,1.391,1.641,1.909,2.57
		L72.951,13.466z"/>
	<path fill="#E22434" d="M58.661,11.631c1.351,0.629,2.523,1.486,3.508,2.496l6.496-2.364c-1.801-2.519-4.25-4.626-7.25-6.023
		c-9.283-4.326-20.362-0.301-24.686,8.973c-1.404,2.997-1.925,6.186-1.683,9.271l6.498-2.361c0.105-1.402,0.451-2.812,1.082-4.164
		C45.436,11.436,52.633,8.82,58.661,11.631"/>
	<path fill="#E22434" d="M38.67,25.93l-6.17,2.243c0.568,2.244,1.552,4.382,2.902,6.279l6.482-2.353
		C40.221,30.39,39.112,28.234,38.67,25.93"/>
	<path fill="#E22434" d="M65.587,23.482c-0.104,1.402-0.455,2.813-1.088,4.165c-2.812,6.024-10.007,8.64-16.04,5.829
		c-1.351-0.632-2.532-1.484-3.515-2.492l-6.479,2.356c1.795,2.52,4.244,4.626,7.245,6.027c9.283,4.323,20.359,0.298,24.69-8.976
		c1.4-2.998,1.917-6.185,1.671-9.268L65.587,23.482z"/>
	<path fill="#E22434" d="M67.186,15.56l-6.17,2.249c1.147,2.047,1.687,4.411,1.513,6.786l6.48-2.356
		C68.821,19.916,68.201,17.648,67.186,15.56"/>
	<path fill="#97101B" d="M44.223,21.943c-0.016-0.433-0.01-0.868,0.026-1.304L37.751,23c0.031,0.416,0.085,0.827,0.147,1.238
		L44.223,21.943z"/>
	<path fill="#97101B" d="M72.013,11.759c-0.206-0.33-0.418-0.66-0.645-0.98l-6.493,2.362c0.285,0.292,0.55,0.604,0.8,0.92
		L72.013,11.759z"/>
	<path fill="#BC1C29" d="M38.466,33.341c0.499,0.7,1.052,1.373,1.651,2.002l7.054-2.568c-0.826-0.518-1.57-1.117-2.228-1.788
		L38.466,33.341z M72.071,21.126l-6.483,2.358c-0.068,0.932-0.25,1.865-0.548,2.782l7.051-2.569
		C72.145,22.835,72.135,21.977,72.071,21.126"/>
	<path fill="#FFFFFF" d="M241.097,14.457c-0.067,0.164-0.16,0.304-0.279,0.422c-0.122,0.115-0.262,0.206-0.423,0.271
		c-0.163,0.064-0.339,0.095-0.533,0.095c-0.188,0-0.363-0.031-0.526-0.095c-0.162-0.065-0.302-0.155-0.425-0.271
		c-0.116-0.118-0.212-0.258-0.276-0.422c-0.071-0.163-0.105-0.344-0.105-0.544c0-0.198,0.034-0.38,0.105-0.542
		c0.064-0.165,0.16-0.305,0.276-0.422c0.122-0.118,0.263-0.206,0.425-0.271c0.163-0.063,0.341-0.095,0.526-0.095
		c0.194,0,0.37,0.032,0.533,0.095c0.16,0.065,0.3,0.154,0.423,0.271c0.119,0.117,0.212,0.257,0.279,0.422
		c0.067,0.162,0.101,0.344,0.101,0.542C241.197,14.113,241.164,14.294,241.097,14.457 M240.928,13.442
		c-0.06-0.146-0.14-0.267-0.244-0.367c-0.101-0.104-0.224-0.183-0.365-0.241c-0.139-0.056-0.291-0.086-0.457-0.086
		c-0.158,0-0.31,0.031-0.452,0.086c-0.139,0.058-0.26,0.137-0.361,0.241c-0.105,0.1-0.188,0.222-0.246,0.367
		c-0.06,0.143-0.091,0.297-0.091,0.471c0,0.171,0.031,0.331,0.091,0.473c0.058,0.143,0.141,0.265,0.246,0.368
		c0.103,0.102,0.225,0.179,0.361,0.236c0.144,0.059,0.293,0.085,0.452,0.085c0.164,0,0.318-0.027,0.457-0.085
		c0.143-0.057,0.266-0.135,0.365-0.236c0.104-0.103,0.185-0.225,0.244-0.368c0.062-0.143,0.089-0.301,0.089-0.473
		C241.019,13.74,240.989,13.583,240.928,13.442 M240.362,13.851c-0.06,0.071-0.142,0.118-0.245,0.144l0.33,0.629h-0.23l-0.316-0.616
		h-0.318v0.616h-0.194v-1.472h0.598c0.135,0,0.245,0.036,0.335,0.104c0.093,0.07,0.139,0.176,0.139,0.321
		C240.456,13.687,240.424,13.778,240.362,13.851 M240.185,13.39c-0.047-0.042-0.119-0.063-0.213-0.063h-0.393v0.499h0.369
		c0.208,0,0.311-0.084,0.311-0.249C240.261,13.493,240.233,13.429,240.185,13.39"/>
</g>
</svg>
